Coordinates
version=1
nRows=30
nColumns=33
inDegrees=yes

Units are S.I. units (second, meters, Newtons, ...)
Angles are in degrees.

endheader
time	ground_thorax_rot_x	ground_thorax_rot_y	ground_thorax_rot_z	ground_thorax_tx	ground_thorax_ty	ground_thorax_tz	clav_prot_r	clav_elev_r	scapula_abduction_r	scapula_elevation_r	scapula_upward_rot_r	scapula_winging_r	shoulder_elv_r	plane_of_elev_r	axial_rot_r	elbow_flexion_r	pro_sup_r	wrist_flex_r	wrist_dev_r	clav_prot_l	clav_elev_l	scapula_abduction_l	scapula_elevation_l	scapula_upward_rot_l	scapula_winging_l	shoulder_elv_l	plane_of_elev_l	axial_rot_l	elbow_flexion_l	pro_sup_l	wrist_flex_l	wrist_dev_l	
8.3500	-41.577785	-7.440650	0.954806	-58.236169	802.530291	9.576571	6.128415	-45.000000	44.999600	-45.000000	-12.046217	-1530.778702	-1556.860245	151.186890	-104.656144	1810.966374	13.758868	18.275876	10.659563	16.185366	40.966782	-44.999922	-40.032968	-27.352934	3680.079015	-2981.989181	136.092396	180.056849	2884.704174	15.869888	13.603663	-17.867146	
8.3600	-41.421470	-7.731165	1.111917	-57.264582	801.087463	9.639105	6.278415	-45.000000	44.999284	-45.000000	-12.436663	-1530.713696	-1556.973580	151.236361	-104.247996	1810.831933	13.508175	18.083493	10.670446	16.125027	40.683736	-44.999860	-39.776390	-27.552471	3680.111508	-2982.007897	136.087849	179.956093	2884.530656	16.009108	13.576687	-17.855270	
8.3700	-41.274687	-8.024587	1.262073	-56.416505	799.707814	9.672215	6.432189	-45.000000	44.998717	-45.000000	-12.824137	-1530.669300	-1557.080623	151.280869	-103.837474	1810.723178	13.271994	17.910197	10.687921	16.081447	40.437126	-44.999749	-39.538786	-27.792974	3680.165284	-2982.012120	136.053582	179.890047	2884.366612	16.150209	13.530754	-17.847878	
8.3800	-41.128437	-8.221043	1.298928	-55.826903	798.473257	9.643600	6.491343	-45.000000	44.997702	-45.000000	-13.046887	-1530.620660	-1557.166038	151.354428	-103.459530	1810.605956	13.048705	17.762618	10.725821	16.039549	40.236990	-44.999551	-39.315969	-27.837356	3680.209399	-2982.045688	136.074203	179.856281	2884.222614	16.290355	13.477799	-17.845689	
8.3900	-40.992252	-8.360659	1.266603	-55.522264	797.383339	9.549763	6.502738	-45.000000	44.995883	-45.000000	-13.186213	-1530.588269	-1557.237278	151.439333	-103.111782	1810.494672	12.852635	17.643228	10.777324	16.005634	40.095804	-44.999196	-39.124721	-27.802168	3680.258862	-2982.088263	136.107789	179.845035	2884.096558	16.427416	13.409191	-17.849098	
8.4000	-40.869979	-8.448633	1.176292	-55.546155	796.448484	9.384825	6.483761	-45.000000	44.992625	-45.000000	-13.271937	-1530.588002	-1557.302195	151.521845	-102.797133	1810.385070	12.696573	17.551087	10.834224	15.974885	40.013651	-44.998559	-38.977040	-27.713191	3680.309922	-2982.138062	136.148765	179.843328	2883.987518	16.554627	13.331856	-17.858578	
8.4100	-40.762192	-8.517438	1.065522	-55.910882	795.657729	9.152360	6.458319	-45.000000	44.986790	-45.000000	-13.371356	-1530.624122	-1557.355778	151.594418	-102.511077	1810.286592	12.596900	17.485954	10.895512	15.952234	39.981497	-44.997419	-38.868490	-27.633501	3680.373674	-2982.185783	136.187695	179.829130	2883.895039	16.658928	13.239864	-17.873350	
8.4200	-40.674757	-8.587057	0.962862	-56.612930	794.992047	8.860876	6.458135	-45.000000	44.976334	-45.000000	-13.541800	-1530.709796	-1557.411932	151.640213	-102.247678	1810.193731	12.569450	17.440695	10.946323	15.933543	39.985977	-44.995378	-38.805548	-27.612496	3680.446226	-2982.221975	136.218831	179.783821	2883.818679	16.726490	13.146530	-17.893555	
8.4300	-40.601178	-8.677964	0.891267	-57.646002	794.435117	8.519505	6.483521	-45.000000	44.957614	-45.000000	-13.799161	-1530.810330	-1557.444191	151.691931	-101.997776	1810.112420	12.627500	17.414041	10.988875	15.928991	40.005749	-44.991717	-38.787326	-27.672047	3680.521880	-2982.263526	136.256466	179.695224	2883.760821	16.742358	13.053663	-17.917982	
8.4400	-40.542071	-8.796741	0.860260	-59.001960	793.972960	8.136951	6.545813	-45.000000	44.924056	-45.000000	-14.151815	-1530.920118	-1557.448069	151.753452	-101.742400	1810.048681	12.781436	17.403842	11.014290	15.947566	40.034537	-44.985170	-38.813303	-27.834692	3680.591833	-2982.299591	136.302401	179.576580	2883.726524	16.692492	12.968961	-17.946885	
8.4500	-40.497823	-8.955051	0.881931	-60.671657	793.593256	7.720693	6.638647	-45.000000	44.864016	-45.000000	-14.611569	-1531.020280	-1557.415642	151.839238	-101.465397	1810.008887	13.039005	17.410570	11.025527	15.999794	40.067507	-44.973416	-38.882915	-28.121530	3680.654907	-2982.328943	136.354665	179.436972	2883.715045	16.569783	12.889289	-17.978763	
8.4600	-40.475482	-9.151427	0.961013	-62.646002	793.284883	7.276880	6.761043	-45.000000	44.756262	-45.000000	-15.203464	-1531.123420	-1557.364103	151.926341	-101.149853	1809.991299	13.403041	17.431658	11.015332	16.088820	40.108917	-44.952435	-38.999464	-28.540926	3680.703125	-2982.336060	136.406896	179.289023	2883.722080	16.372767	12.821340	-18.012741	
8.4700	-40.477081	-9.397179	1.118087	-64.916646	793.037878	6.810455	6.904473	-45.000000	44.563818	-45.000000	-15.967474	-1531.207579	-1557.291587	152.018515	-100.788483	1809.990598	13.872899	17.464341	10.989595	16.225391	40.154370	-44.914646	-39.178336	-29.119806	3680.721495	-2982.329136	136.450091	179.140941	2883.739743	16.108485	12.761065	-18.045881	
8.4800	-40.510709	-9.731270	1.417850	-67.476271	792.843546	6.325363	7.070984	-45.000000	44.217491	-45.000000	-17.026578	-1531.283106	-1557.210785	152.080381	-100.344816	1810.009694	14.452695	17.508464	10.946990	16.455500	40.204521	-44.847529	-39.440590	-29.966935	3680.669633	-2982.271981	136.465403	179.092012	2883.760624	15.762304	12.708409	-18.074330	
8.4900	-40.587357	-10.189770	1.911876	-70.318033	792.694949	5.824655	7.245293	-45.000000	43.643052	-45.000000	-18.507720	-1531.313957	-1557.117163	152.101226	-99.834665	1810.038675	15.136168	17.559431	10.889478	16.777423	40.255926	-44.725701	-39.812885	-31.124108	3680.525295	-2982.161752	136.445575	179.144283	2883.781614	15.350355	12.665425	-18.097107	
8.5000	-40.716668	-10.811926	2.644568	-73.434740	792.587515	5.310625	7.418273	-45.000000	42.795202	-45.000000	-20.510848	-1531.283463	-1557.003703	152.067360	-99.268750	1810.076998	15.912946	17.614266	10.817632	17.180990	40.308801	-44.511945	-40.320680	-32.615902	3680.257596	-2981.985265	136.394446	179.298098	2883.805457	14.891249	12.630280	-18.114891	
8.5100	-40.904572	-11.594185	3.595168	-76.817931	792.519705	4.785033	7.562240	-45.000000	41.653619	-45.000000	-23.045877	-1531.126418	-1556.836129	152.003731	-98.701250	1810.116651	16.760485	17.664863	10.724113	17.575823	40.373768	-44.178374	-40.973170	-34.370692	3679.880557	-2981.751401	136.310175	179.464712	2883.837563	14.432573	12.623265	-18.133769	
8.5200	-41.149815	-12.521390	4.728011	-80.457137	792.493325	4.249403	7.672650	-45.000000	40.270051	-45.000000	-26.047507	-1530.868351	-1556.614115	151.903897	-98.154829	1810.159464	17.662162	17.708628	10.617671	17.933963	40.452599	-43.729029	-41.765817	-36.340555	3679.402646	-2981.459662	136.203502	179.628516	2883.884013	13.998802	12.628133	-18.155791	
8.5300	-41.425122	-13.504842	5.912508	-84.339671	792.513596	3.705365	7.741533	-45.000000	38.780157	-45.000000	-29.261454	-1530.549709	-1556.329859	151.785698	-97.657681	1810.206915	18.594692	17.744539	10.501190	18.189858	40.542250	-43.198576	-42.613912	-38.314576	3678.913335	-2981.142517	136.096535	179.687177	2883.950339	13.644770	12.653490	-18.186906	
8.5400	-41.688478	-14.443494	7.019042	-88.449940	792.588742	3.155102	7.809164	-45.000000	37.390098	-45.000000	-32.329891	-1530.307866	-1556.030947	151.655284	-97.195596	1810.259443	19.544731	17.773895	10.397676	18.376089	40.613684	-42.654824	-43.419689	-40.111064	3678.479810	-2980.852194	136.040749	179.564193	2884.045405	13.402341	12.638857	-18.224067	
8.5500	-41.911813	-15.245429	7.933330	-92.771043	792.729541	2.601465	7.852856	-45.000000	36.189533	-45.000000	-35.039983	-1530.150780	-1555.705334	151.539705	-96.791302	1810.317636	20.497567	17.797307	10.298160	18.427524	40.652576	-42.142985	-44.080178	-41.583169	3678.196587	-2980.596559	136.020537	179.276762	2884.156749	13.293691	12.631602	-18.273854	
8.5600	-42.077304	-15.880271	8.634698	-97.283776	792.948311	2.048210	7.900469	-45.000000	35.244418	-45.000000	-37.279542	-1530.144717	-1555.389848	151.435895	-96.417989	1810.382111	21.453042	17.818078	10.213015	18.414493	40.630741	-41.706750	-44.559314	-42.738311	3678.071376	-2980.390982	136.048569	178.870946	2884.284082	13.308669	12.605468	-18.333607	
8.5700	-42.184991	-16.342310	9.121389	-101.968166	793.258296	1.499728	7.932182	-45.000000	34.527570	-45.000000	-39.072995	-1530.244148	-1555.068493	151.358855	-96.086756	1810.457183	22.404838	17.840357	10.131574	18.314176	40.553086	-41.339192	-44.839502	-43.578569	3678.115433	-2980.220316	136.102928	178.401200	2884.418613	13.447443	12.600526	-18.408037	
8.5800	-42.243012	-16.643158	9.421877	-106.802451	793.672733	0.960855	7.981397	-45.000000	34.024865	-45.000000	-40.443765	-1530.462976	-1554.774848	151.302075	-95.773881	1810.537151	23.350784	17.863545	10.061960	18.191322	40.430060	-41.031309	-44.964009	-44.142992	3678.274057	-2980.100834	136.204413	177.824017	2884.571902	13.708131	12.563794	-18.493588	
8.5900	-42.281475	-16.826846	9.589527	-111.765362	794.204501	0.436145	8.010789	-45.000000	33.618142	-45.000000	-41.579383	-1530.700554	-1554.481386	151.269700	-95.489665	1810.620789	24.285269	17.886710	9.984865	17.996310	40.297770	-40.739600	-44.995559	-44.510569	3678.506627	-2979.998404	136.315164	177.201937	2884.732832	14.080654	12.544844	-18.595777	
8.6000	-42.313737	-16.928238	9.670974	-116.834700	794.865389	-0.070500	8.054293	-45.000000	33.287717	-45.000000	-42.532562	-1530.976482	-1554.217007	151.249244	-95.179483	1810.706137	25.209504	17.908963	9.903429	17.808281	40.173358	-40.456453	-45.000000	-44.750051	3678.752612	-2979.929393	136.457994	176.489357	2884.913192	14.561035	12.502840	-18.710717	
8.6100	-42.346050	-16.967202	9.688184	-121.988999	795.666079	-0.556446	8.114452	-45.000000	33.020382	-45.000000	-43.341165	-1531.282171	-1553.979862	151.241766	-94.840923	1810.798219	26.121177	17.933478	9.818366	17.635205	40.071611	-40.174339	-45.000000	-44.903409	3678.993791	-2979.885387	136.624961	175.719070	2885.110536	15.138587	12.434950	-18.835716	
8.6200	-42.371313	-16.943570	9.645942	-127.206635	796.615743	-1.020497	8.215463	-45.000000	32.841362	-45.000000	-43.941369	-1531.658351	-1553.795352	151.249241	-94.399929	1810.895680	27.023882	17.958476	9.728010	17.527729	39.984700	-39.904774	-45.000000	-44.976286	3679.220780	-2979.883135	136.834250	174.834414	2885.333233	15.809038	12.312876	-18.966751	
8.6300	-42.396148	-16.870615	9.557659	-132.467115	797.722347	-1.462997	8.321147	-45.000000	32.709905	-45.000000	-44.394546	-1532.062025	-1553.641470	151.274554	-93.896004	1810.999871	27.914609	17.984791	9.629276	17.428504	39.905857	-39.641659	-45.000000	-45.000000	3679.448192	-2979.898763	137.054962	173.889323	2885.570210	16.551946	12.167891	-19.105763	
8.6400	-42.415786	-16.759426	9.437698	-137.749934	798.992370	-1.885523	8.436854	-45.000000	32.628904	-45.000000	-44.697846	-1532.511627	-1553.526801	151.308346	-93.270984	1811.109901	28.800049	18.010488	9.517992	17.362115	39.813528	-39.392418	-45.000000	-45.000000	3679.681692	-2979.937745	137.280680	172.877467	2885.813814	17.354926	11.989992	-19.243819	
